<svg xmlns="http://www.w3.org/2000/svg" viewBox="0 0 320 220" role="img" aria-label="Bloomora island level 2">
  <rect width="320" height="220" rx="24" fill="#e0f2fe"/>
  <ellipse cx="160" cy="164" rx="122" ry="30" fill="#bfdbfe"/>
  <path d="M66 141c39-55 143-62 190 1-19 34-59 50-96 51-43 1-82-17-94-52Z" fill="#2dd4bf"/>
  <path d="M96 133h45l-23-40-22 40Z" fill="#f0fdfa"/>
  <path d="M122 133h76l-38-64-38 64Z" fill="#ccfbf1"/>
  <path d="M189 139h50l-25-44-25 44Z" fill="#f8fafc"/>
  <path d="M86 147c41 20 105 22 150 0-23 26-50 38-78 38-27 0-52-12-72-38Z" fill="#0f766e"/>
</svg>
