<svg xmlns="http://www.w3.org/2000/svg" width="1920" height="1080" viewBox="0 0 1920 1080">
  <defs>
    <linearGradient id="bg" x1="0" y1="0" x2="1" y2="1">
      <stop offset="0" stop-color="#0b0f18"/>
      <stop offset="0.55" stop-color="#10263a"/>
      <stop offset="1" stop-color="#081016"/>
    </linearGradient>
  </defs>
  <rect width="1920" height="1080" fill="url(#bg)"/>
  <g opacity="0.22">
    <path d="M0,740 C240,660 420,680 640,640 C880,595 1060,530 1280,560 C1520,592 1680,660 1920,620" fill="none" stroke="#79ffe0" stroke-width="10"/>
    <path d="M0,820 C260,740 460,760 700,720 C940,680 1120,610 1360,640 C1600,672 1760,740 1920,700" fill="none" stroke="#a58bff" stroke-width="10"/>
    <path d="M0,900 C260,840 500,860 740,830 C1000,800 1180,730 1440,760 C1680,788 1800,850 1920,820" fill="none" stroke="#ffd0a8" stroke-width="10"/>
  </g>
  <g opacity="0.10">
    <circle cx="420" cy="300" r="220" fill="#79ffe0"/>
    <circle cx="1480" cy="260" r="280" fill="#a58bff"/>
  </g>
</svg>
