<svg xmlns="http://www.w3.org/2000/svg" width="1920" height="1080" viewBox="0 0 1920 1080">
  <defs>
    <linearGradient id="sky" x1="0" y1="0" x2="0" y2="1">
      <stop offset="0" stop-color="#0b1b2a"/>
      <stop offset="0.55" stop-color="#123a3d"/>
      <stop offset="1" stop-color="#0a0f12"/>
    </linearGradient>
    <linearGradient id="lake" x1="0" y1="0" x2="1" y2="1">
      <stop offset="0" stop-color="#0f3d47"/>
      <stop offset="1" stop-color="#071a20"/>
    </linearGradient>
    <filter id="fog" x="-20%" y="-20%" width="140%" height="140%">
      <feGaussianBlur stdDeviation="22"/>
    </filter>
  </defs>
  <rect width="1920" height="1080" fill="url(#sky)"/>
  <g opacity="0.55" filter="url(#fog)">
    <ellipse cx="520" cy="300" rx="520" ry="140" fill="#9ad6c8" opacity="0.18"/>
    <ellipse cx="1280" cy="260" rx="620" ry="160" fill="#b0e7d6" opacity="0.14"/>
    <ellipse cx="960" cy="420" rx="820" ry="200" fill="#c0f0e0" opacity="0.10"/>
  </g>
  <path d="M0,620 C220,540 440,560 620,520 C820,475 980,420 1180,450 C1420,485 1580,560 1920,520 L1920,1080 L0,1080 Z" fill="#061317" opacity="0.95"/>
  <path d="M0,720 C260,650 430,690 640,650 C820,615 980,560 1200,585 C1460,615 1640,705 1920,660 L1920,1080 L0,1080 Z" fill="url(#lake)" opacity="0.92"/>
  <g opacity="0.75">
    <path d="M140,860 l40,-180 l40,180 Z" fill="#0a1f18"/>
    <path d="M220,880 l50,-220 l50,220 Z" fill="#0b2a20"/>
    <path d="M340,900 l58,-260 l58,260 Z" fill="#0a241c"/>
    <path d="M1600,890 l60,-260 l60,260 Z" fill="#0a241c"/>
    <path d="M1720,910 l52,-230 l52,230 Z" fill="#0b2a20"/>
    <path d="M1820,930 l44,-190 l44,190 Z" fill="#0a1f18"/>
  </g>
</svg>
